# xmcd CD database file
#
# Track frame offsets:
#	150
#	11590
#	22306
#	33755
#	49861
#	63357
#	74176
#	83246
#	96219
#	111736
#	122946
#	132597
#	146050
#	160272
#
# Disc length: 2310 seconds
#
# Revision: 1
# Processed by: cddbd v1.5.2PL0 Copyright (c) Steve Scherf et al.
# Submitted via: CDex 1.51
#
DISCID=d809040e
DTITLE=Rosemary Clooney - Mambo Italiano
DYEAR=1900
DGENRE=Jazz
TTITLE0=You'll Never Know
TTITLE1=Half As Much
TTITLE2=Mambo Italiano
TTITLE3=Count Your Blessings Instead Of Sheep
TTITLE4=Tenderly
TTITLE5=This Ole House
TTITLE6=Come On-A My House
TTITLE7=You Make Me Feel So Young
TTITLE8=Blues In The Night
TTITLE9=It's Only A Paper Moon
TTITLE10=Our Love Affair
TTITLE11=I Do, I Do, I Do
TTITLE12=My Old Flame
TTITLE13=Don't Worry 'Bout Me
EXTD=
EXTT0=
EXTT1=
EXTT2=
EXTT3=
EXTT4=
EXTT5=
EXTT6=
EXTT7=
EXTT8=
EXTT9=
EXTT10=
EXTT11=
EXTT12=
EXTT13=
PLAYORDER=
